<svg xmlns="http://www.w3.org/2000/svg" viewBox="0 0 24 24" width="24" height="24"><path d="M14 14a2 2 0 0 1 2 2v4a2 2 0 0 1-2 2" fill="currentColor"/><path d="M14 4a2 2 0 0 1 2-2" fill="currentColor"/><path d="M16 10a2 2 0 0 1-2-2" fill="currentColor"/><path d="M20 14a2 2 0 0 1 2 2v4a2 2 0 0 1-2 2" fill="currentColor"/><path d="M20 2a2 2 0 0 1 2 2" fill="currentColor"/><path d="M22 8a2 2 0 0 1-2 2" fill="currentColor"/><path d="m3 7 3 3 3-3" fill="currentColor"/><path d="M6 10V5a 3 3 0 0 1 3-3h1" fill="currentColor"/></svg>