<svg xmlns="http://www.w3.org/2000/svg" viewBox="0 0 24 24" width="24" height="24"><path d="M12 5a3 3 0 1 0-5.997.125 4 4 0 0 0-2.526 5.77 4 4 0 0 0 .556 6.588A4 4 0 1 0 12 18Z" fill="currentColor"/><path d="M9 13a4.5 4.5 0 0 0 3-4" fill="currentColor"/><path d="M6.003 5.125A3 3 0 0 0 6.401 6.5" fill="currentColor"/><path d="M3.477 10.896a4 4 0 0 1 .585-.396" fill="currentColor"/><path d="M6 18a4 4 0 0 1-1.967-.516" fill="currentColor"/><path d="M12 13h4" fill="currentColor"/><path d="M12 18h6a2 2 0 0 1 2 2v1" fill="currentColor"/><path d="M12 8h8" fill="currentColor"/><path d="M16 8V5a2 2 0 0 1 2-2" fill="currentColor"/></svg>