<svg xmlns="http://www.w3.org/2000/svg" viewBox="0 0 24 24" width="24" height="24"><path d="M22 20v-9H2v9a2 2 0 0 0 2 2h16a2 2 0 0 0 2-2Z" fill="currentColor"/><path d="M18 11V4H6v7" fill="currentColor"/><path d="M15 22v-4a3 3 0 0 0-3-3a3 3 0 0 0-3 3v4" fill="currentColor"/><path d="M22 11V9" fill="currentColor"/><path d="M2 11V9" fill="currentColor"/><path d="M6 4V2" fill="currentColor"/><path d="M18 4V2" fill="currentColor"/><path d="M10 4V2" fill="currentColor"/><path d="M14 4V2" fill="currentColor"/></svg>