<svg xmlns="http://www.w3.org/2000/svg" viewBox="0 0 413 413" width="24" height="24"><path d="M462.54 224.21v-96.19c0-9.38-4.99-18.05-13.1-22.76l-69.73-40.53c-11.7-6.8-26.37 1.64-26.37 15.17v102.48l-49.53-28.53a85.586 85.586 0 0 0-85.59.1l-49.25 28.52V79.91c0-13.53-14.67-21.97-26.37-15.17l-69.73 40.53a26.318 26.318 0 0 0-13.1 22.76v96.28c0 13.49 6.89 26.04 18.26 33.29l63.48 40.47c16.51 10.52 37.82 9.68 53.44-2.12l44.13-33.32c12.13-9.16 31.98-9.16 44.11 0l44.12 33.3a46.889 46.889 0 0 0 53.44 2.11l63.55-40.53a39.484 39.484 0 0 0 18.24-33.28" fill="currentColor"/><path d="M261.22 197.96c-11.56 0-23.13 3.24-33.27 9.72l-58.98 37.68v34.33c0 10.58 8.69 17.89 17.94 17.89 3.61 0 7.31-1.11 10.61-3.58l40.13-30.31.1-.07 1.33-1.01c6.07-4.58 14.06-6.87 22.06-6.87s15.99 2.29 22.05 6.87l40.2 30.34 3.94 2.97c.85.64 1.72 1.25 2.61 1.83l-5.05-3.81c3.32 2.51 7.05 3.64 10.69 3.64 9.25 0 17.94-7.31 17.94-17.89v-34.25l-58.99-37.74a61.78 61.78 0 0 0-33.3-9.74m-38.97-46.19c-.58.3-1.16.6-1.73.91l-51.55 29.91v.1l53.28-30.92" fill="currentColor"/><path d="M57.82 126.29h407v157h-407v-157" fill="currentColor"/><path d="m334.88 171.75 18.64 10.83v-.09l-.17-.1-18.47-10.64" fill="currentColor"/><path d="m334.84 171.73 18.68 10.85-18.64-10.83-.04-.02" fill="currentColor"/><path d="M261.11 142.44c-13.33 0-26.66 3.11-38.86 9.33l-53.28 30.92v62.67l58.98-37.68a61.804 61.804 0 0 1 66.57.02l58.99 37.74v-62.86l-18.68-10.86-31.02-17.87a85.547 85.547 0 0 0-42.71-11.42" fill="currentColor"/><path d="M59.78 127.77v96.84-96.84" fill="currentColor"/><path d="m77.78 257.42.26.17 9.01 5.74s.02.01.02.02c.01 0 .03.02.04.02l-9.33-5.95" fill="currentColor"/><path d="M151.4 62.33c-2.55 0-5.17.57-7.67 1.8l-72.16 41.94a26.318 26.318 0 0 0-11.78 21.69v96.84-9.75c0 10.45 8.58 17.92 17.92 17.92 2.99 0 6.06-.77 8.96-2.45l82.31-47.84V79.64c-.14-10.11-8.49-17.31-17.58-17.31" fill="currentColor"/><path d="m197.49 294.02-.91.69.91-.69m-28.52-111.54v63.14-63.14" fill="currentColor"/><path d="m196.58 294.71-1.79 1.35c.05-.04.11-.08.16-.12l1.63-1.23m-27.61-112.23-82.31 47.84c-2.9 1.68-5.97 2.45-8.96 2.45-9.34 0-17.92-7.47-17.92-17.92v9.75c.1 13.27 6.87 25.59 18 32.81l9.33 5.95c8.42 5.26 18.32 8.3 28.09 8.3 7.89 0 15.69-1.98 22.56-6.37l31.21-19.68v-63.13" fill="currentColor"/><path d="m123.44 286.53 18.08 11.53-4.76-3.04-13.32-8.49" fill="currentColor"/><path d="m90.22 265.35 33.22 21.18 13.32 8.49-4.18-2.66-42.36-27.01" fill="currentColor"/><path d="m87.05 263.33 3.17 2.02 42.36 27-45.47-28.99s-.03-.02-.04-.02c0 0-.02-.01-.02-.02" fill="currentColor"/><path d="M168.97 245.63v34.12c0 10.58 8.69 17.89 17.94 17.89 3.27 0 6.62-.91 9.67-2.92l.91-.69.1-.08s-.05.04-.07.06c-3.3 2.47-7 3.58-10.61 3.58-9.25 0-17.94-7.31-17.94-17.89v-34.06" fill="currentColor"/><path d="m168.97 245.62-31.21 19.68c-6.86 4.39-14.67 6.37-22.56 6.37-9.77 0-19.68-3.04-28.09-8.3l54.41 34.69a46.843 46.843 0 0 0 25.19 7.35c9.91 0 19.79-3.13 28.09-9.34l1.79-1.35c-3.06 2.01-6.4 2.92-9.67 2.92-9.25 0-17.94-7.31-17.94-17.89v-34.12" fill="currentColor"/><path d="M370.93 62.33c-8.4 0-16.17 6.16-17.41 15.08v202.28-97.21l82.31 47.84c2.9 1.68 5.97 2.45 8.96 2.45 8.58 0 16.51-6.29 17.75-15.41v-89.35c0-9.38-4.99-18.05-13.1-22.76l-69.73-40.53c-2.84-1.65-5.85-2.4-8.79-2.4" fill="currentColor"/><path d="M353.52 182.48v97.21-34.06l31.21 19.67c6.86 4.39 14.67 6.37 22.56 6.37 8.56 0 17.21-2.33 24.88-6.44l12.13-7.73a39.484 39.484 0 0 0 18.24-33.28v-6.85c-1.24 9.11-9.17 15.41-17.75 15.41-2.99 0-6.06-.77-8.96-2.45l-82.31-47.84" fill="currentColor"/><path d="m324.9 293.94 5.05 3.81h.01l-5.06-3.82" fill="currentColor"/><path d="M353.53 245.62v34.07c0 10.58-8.69 17.89-17.94 17.89-3.64 0-7.37-1.13-10.69-3.64l5.06 3.82c7.75 5.06 16.67 7.61 25.61 7.61s17.49-2.44 25.2-7.35l51.42-32.79c-7.67 4.11-16.33 6.44-24.88 6.44-7.89 0-15.69-1.98-22.56-6.37l-31.21-19.68" fill="currentColor"/><path d="M407.88 246.833v-96.19c0-9.38-4.99-18.05-13.1-22.76l-69.73-40.53c-11.7-6.8-26.37 1.64-26.37 15.17v102.48l-49.53-28.53a85.586 85.586 0 0 0-85.59.1l-49.25 28.52v-102.56c0-13.53-14.67-21.97-26.37-15.17l-69.73 40.53a26.318 26.318 0 0 0-13.1 22.76v96.28c0 13.49 6.89 26.04 18.26 33.29l63.48 40.47c16.51 10.52 37.82 9.68 53.44-2.12l44.13-33.32c12.13-9.16 31.98-9.16 44.11 0l44.12 33.3a46.889 46.889 0 0 0 53.44 2.11l63.55-40.53a39.484 39.484 0 0 0 18.24-33.28v-.02Z" fill="currentColor"/><path d="m323.4 292.95 3.92 2.96.01.01-3.94-2.97m-85.65-29.33-.1.07L197.51 294s.05-.04.07-.06l40.16-30.33m-17.23-110.94c-.77.42-1.54.84-2.3 1.28l-49.25 28.52v.11l51.55-29.91" fill="currentColor"/><path d="M168.97 79.64v102.84V79.65m-25.25-15.51c-.38.18-.75.38-1.12.6l-22.68 13.18-47.27 27.48c-.37.22-.74.45-1.1.69l72.16-41.94" fill="currentColor"/></svg>