<svg xmlns="http://www.w3.org/2000/svg" viewBox="0 0 100 101" width="24" height="24"><path d="M100 50.5908C100 78.2051 77.6142 100.591 50 100.591C22.3858 100.591 0 78.2051 0 50.5908C0 22.9766 22.3858 0.59082 50 0.59082C77.6142 0.59082 100 22.9766 100 50.5908ZM9.08144 50.5908C9.08144 73.1895 27.4013 91.5094 50 91.5094C72.5987 91.5094 90.9186 73.1895 90.9186 50.5908C90.9186 27.9921 72.5987 9.67226 50 9.67226C27.4013 9.67226 9.08144 27.9921 9.08144 50.5908Z" fill="currentColor"/><path d="M93.9676 39.0409C96.393 38.4038 97.8624 35.9116 97.0079 33.5539C95.2932 28.8227 92.871 24.3692 89.8167 20.348C85.8452 15.1192 80.8826 10.7238 75.2124 7.41289C69.5422 4.10194 63.2754 1.94025 56.7698 1.05124C51.7666 0.367541 46.6976 0.446843 41.7345 1.27873C39.2613 1.69328 37.813 4.19778 38.4501 6.62326C39.0873 9.04874 41.5694 10.4717 44.0505 10.1071C47.8511 9.54855 51.7191 9.52689 55.5402 10.0491C60.8642 10.7766 65.9928 12.5457 70.6331 15.2552C75.2735 17.9648 79.3347 21.5619 82.5849 25.841C84.9175 28.9121 86.7997 32.2913 88.1811 35.8758C89.083 38.2158 91.5421 39.6781 93.9676 39.0409Z" fill="currentColor"/><path d="M32 18.133H18.133V32h-4.266V18.133H0v-4.266h13.867V0h4.266v13.867H32z" fill="currentColor"/><path d="M0 0h32v4.2H0z" fill="currentColor"/><path d="M3.692 4.63c0-.53.4-.938.939-.938h5.215V0H4.708C2.13 0 0 2.054 0 4.63v5.216h3.692V4.631zM27.354 0h-5.2v3.692h5.17c.53 0 .984.4.984.939v5.215H32V4.631A4.624 4.624 0 0027.354 0zm.954 24.83c0 .532-.4.94-.939.94h-5.215v3.768h5.215c2.577 0 4.631-2.13 4.631-4.707v-5.139h-3.692v5.139zm-23.677.94c-.531 0-.939-.4-.939-.94v-5.138H0v5.139c0 2.577 2.13 4.707 4.708 4.707h5.138V25.77H4.631z" fill="currentColor"/><path d="M21.333 10.667H19.81V7.619C19.81 3.429 16.38 0 12.19 0 8 0 4.571 3.429 4.571 7.619v3.048H3.048A3.056 3.056 0 000 13.714v15.238A3.056 3.056 0 003.048 32h18.285a3.056 3.056 0 003.048-3.048V13.714a3.056 3.056 0 00-3.048-3.047zM12.19 24.533a3.056 3.056 0 01-3.047-3.047 3.056 3.056 0 013.047-3.048 3.056 3.056 0 013.048 3.048 3.056 3.056 0 01-3.048 3.047zm4.724-13.866H7.467V7.619c0-2.59 2.133-4.724 4.723-4.724 2.591 0 4.724 2.133 4.724 4.724v3.048z" fill="currentColor"/><path d="M21.333 10.667H19.81V7.619C19.81 3.429 16.38 0 12.19 0c-4.114 1.828-1.37 2.133.305 2.438 1.676.305 4.42 2.59 4.42 5.181v3.048H3.047A3.056 3.056 0 000 13.714v15.238A3.056 3.056 0 003.048 32h18.285a3.056 3.056 0 003.048-3.048V13.714a3.056 3.056 0 00-3.048-3.047zM12.19 24.533a3.056 3.056 0 01-3.047-3.047 3.056 3.056 0 013.047-3.048 3.056 3.056 0 013.048 3.048 3.056 3.056 0 01-3.048 3.047z" fill="currentColor"/><path d="M3.13523 6.15803C3.3241 5.95657 3.64052 5.94637 3.84197 6.13523L7.5 9.56464L11.158 6.13523C11.3595 5.94637 11.6759 5.95657 11.8648 6.15803C12.0536 6.35949 12.0434 6.67591 11.842 6.86477L7.84197 10.6148C7.64964 10.7951 7.35036 10.7951 7.15803 10.6148L3.15803 6.86477C2.95657 6.67591 2.94637 6.35949 3.13523 6.15803Z" fill="currentColor"/><path d="M11.7816 4.03157C12.0062 3.80702 12.0062 3.44295 11.7816 3.2184C11.5571 2.99385 11.193 2.99385 10.9685 3.2184L7.50005 6.68682L4.03164 3.2184C3.80708 2.99385 3.44301 2.99385 3.21846 3.2184C2.99391 3.44295 2.99391 3.80702 3.21846 4.03157L6.68688 7.49999L3.21846 10.9684C2.99391 11.193 2.99391 11.557 3.21846 11.7816C3.44301 12.0061 3.80708 12.0061 4.03164 11.7816L7.50005 8.31316L10.9685 11.7816C11.193 12.0061 11.5571 12.0061 11.7816 11.7816C12.0062 11.557 12.0062 11.193 11.7816 10.9684L8.31322 7.49999L11.7816 4.03157Z" fill="currentColor"/><path d="M7.23336 4.69629C7.23336 2.96884 8.63335 1.56857 10.36 1.56857C11.3736 1.56857 12.183 2.04804 12.7254 2.74385C13.3079 2.62467 13.8557 2.40913 14.3513 2.11508C14.1559 2.72598 13.7424 3.2396 13.2033 3.56463C13.2038 3.56568 13.2042 3.56674 13.2047 3.56779C13.7334 3.50361 14.2364 3.36302 14.7048 3.15546L14.7037 3.15715C14.3667 3.66183 13.9431 4.10736 13.4561 4.47034C13.4823 4.64672 13.4956 4.82427 13.4956 5.00079C13.4956 8.6871 10.6873 12.9746 5.52122 12.9746C3.93906 12.9746 2.46544 12.511 1.22505 11.7152C0.992632 11.5661 0.925108 11.2568 1.07423 11.0244C1.0874 11.0038 1.10183 10.9846 1.11734 10.9666C1.20582 10.8202 1.37438 10.7309 1.5554 10.7522C2.47066 10.8601 3.38568 10.7485 4.19219 10.3962C3.39226 10.0434 2.77129 9.35975 2.50204 8.51974C2.45359 8.3686 2.48835 8.20311 2.59351 8.08422C2.59716 8.0801 2.60087 8.07606 2.60464 8.0721C1.96391 7.50819 1.55973 6.68208 1.55973 5.76143V5.72759C1.55973 5.56814 1.64411 5.42059 1.78155 5.33974C1.82671 5.31317 1.87537 5.29511 1.92532 5.28558C1.70549 4.86154 1.58116 4.37984 1.58116 3.86958C1.58116 3.40165 1.58384 2.81192 1.91332 2.28081C1.98718 2.16175 2.10758 2.08915 2.2364 2.07195C2.42588 2.01237 2.64087 2.06969 2.77406 2.23302C3.86536 3.57126 5.44066 4.49583 7.23366 4.73961L7.23336 4.69629ZM5.52122 11.9746C4.73387 11.9746 3.97781 11.8435 3.27248 11.6023C4.13012 11.4538 4.95307 11.1159 5.66218 10.5602C5.81211 10.4427 5.87182 10.2435 5.81126 10.0629C5.7507 9.88234 5.583 9.75943 5.39255 9.75607C4.68968 9.74366 4.06712 9.39716 3.67793 8.86845C3.86828 8.85306 4.05428 8.82039 4.23445 8.77167C4.43603 8.71716 4.57363 8.53114 4.56674 8.32243C4.55985 8.11372 4.41029 7.93718 4.20555 7.89607C3.42694 7.73977 2.79883 7.16764 2.56169 6.42174C2.76255 6.47025 2.97102 6.4991 3.18482 6.5061C3.38563 6.51267 3.56646 6.38533 3.62795 6.19405C3.68943 6.00277 3.61666 5.79391 3.44963 5.68224C2.86523 5.29155 2.48116 4.62464 2.48116 3.86958C2.48116 3.70213 2.48352 3.55268 2.49355 3.41719C3.85115 4.79913 5.70873 5.68931 7.77588 5.79338C7.93225 5.80126 8.08328 5.73543 8.18395 5.61553C8.28463 5.49562 8.32332 5.33548 8.28851 5.18284C8.25255 5.02517 8.23336 4.86284 8.23336 4.69629C8.23336 3.52085 9.18591 2.56857 10.36 2.56857C11.5943 2.56857 12.4956 3.71208 12.4956 5.00079C12.4956 8.25709 10.0202 11.9746 5.52122 11.9746Z" fill="currentColor"/><path d="M12 6V2H8" fill="currentColor"/><path d="m8 18-4 4V8a2 2 0 0 1 2-2h12a2 2 0 0 1 2 2v8a2 2 0 0 1-2 2Z" fill="currentColor"/><path d="M2 12h2" fill="currentColor"/><path d="M9 11v2" fill="currentColor"/><path d="M15 11v2" fill="currentColor"/><path d="M20 12h2" fill="currentColor"/><path d="M20 6 9 17l-5-5" fill="currentColor"/><path d="m6 9 6 6 6-6" fill="currentColor"/><path d="m18 15-6-6-6 6" fill="currentColor"/><path d="m7 15 5 5 5-5" fill="currentColor"/><path d="m7 9 5-5 5 5" fill="currentColor"/><path d="m15 9-6 6" fill="currentColor"/><path d="m9 9 6 6" fill="currentColor"/><path d="M15 3h6v6" fill="currentColor"/><path d="M10 14 21 3" fill="currentColor"/><path d="M18 13v6a2 2 0 0 1-2 2H5a2 2 0 0 1-2-2V8a2 2 0 0 1 2-2h6" fill="currentColor"/><path d="M5 12h14" fill="currentColor"/><path d="M9 3v18" fill="currentColor"/><path d="M5 12h14" fill="currentColor"/><path d="M12 5v14" fill="currentColor"/><path d="m21 21-4.3-4.3" fill="currentColor"/><path d="M3 6h18" fill="currentColor"/><path d="M19 6v14c0 1-1 2-2 2H7c-1 0-2-1-2-2V6" fill="currentColor"/><path d="M8 6V4c0-1 1-2 2-2h4c1 0 2 1 2 2v2" fill="currentColor"/><path d="M18 6 6 18" fill="currentColor"/><path d="m6 6 12 12" fill="currentColor"/><path d="M13.0486 0.462158H9.75399C9.44371 0.462158 9.14614 0.586082 8.92674 0.806667L4.03751 5.72232C3.81811 5.9429 3.52054 6.06682 3.21026 6.06682H1.16992C0.511975 6.06682 -0.0165756 6.61212 0.000397655 7.2734L0.0515933 9.26798C0.0679586 9.90556 0.586745 10.4139 1.22111 10.4139H3.59097C3.90124 10.4139 4.19881 10.2899 4.41821 10.0694L9.34823 5.11269C9.56763 4.89211 9.8652 4.76818 10.1755 4.76818H13.0486C13.6947 4.76818 14.2185 4.24157 14.2185 3.59195V1.63839C14.2185 0.988773 13.6947 0.462158 13.0486 0.462158Z" fill="currentColor"/><path d="M19.5355 11.5862H22.8301C23.4762 11.5862 24 12.1128 24 12.7624V14.716C24 15.3656 23.4762 15.8922 22.8301 15.8922H19.957C19.6467 15.8922 19.3491 16.0161 19.1297 16.2367L14.1997 21.1934C13.9803 21.414 13.6827 21.5379 13.3725 21.5379H11.0026C10.3682 21.5379 9.84945 21.0296 9.83309 20.392L9.78189 18.3974C9.76492 17.7361 10.2935 17.1908 10.9514 17.1908H12.9918C13.302 17.1908 13.5996 17.0669 13.819 16.8463L18.7082 11.9307C18.9276 11.7101 19.2252 11.5862 19.5355 11.5862Z" fill="currentColor"/><path d="M19.5355 2.9796L22.8301 2.9796C23.4762 2.9796 24 3.50622 24 4.15583V6.1094C24 6.75901 23.4762 7.28563 22.8301 7.28563H19.957C19.6467 7.28563 19.3491 7.40955 19.1297 7.63014L14.1997 12.5868C13.9803 12.8074 13.6827 12.9313 13.3725 12.9313H10.493C10.1913 12.9313 9.90126 13.0485 9.68346 13.2583L4.14867 18.5917C3.93087 18.8016 3.64085 18.9187 3.33917 18.9187H1.32174C0.675616 18.9187 0.151832 18.3921 0.151832 17.7425V15.7343C0.151832 15.0846 0.675616 14.558 1.32174 14.558H3.32468C3.63496 14.558 3.93253 14.4341 4.15193 14.2135L9.40827 8.92878C9.62767 8.70819 9.92524 8.58427 10.2355 8.58427H12.9918C13.302 8.58427 13.5996 8.46034 13.819 8.23976L18.7082 3.32411C18.9276 3.10353 19.2252 2.9796 19.5355 2.9796Z" fill="currentColor"/><path d="M9,9a3,3,0,1,1,4,2.829,1.5,1.5,0,0,0-1,1.415V14.25" fill="currentColor"/><path d="M12,17.25a.375.375,0,1,0,.375.375A.375.375,0,0,0,12,17.25h0" fill="currentColor"/><path d="M21,5H3C2.621,5,2.275,5.214,2.105,5.553C1.937,5.892,1.973,6.297,2.2,6.6l9,12 c0.188,0.252,0.485,0.4,0.8,0.4s0.611-0.148,0.8-0.4l9-12c0.228-0.303,0.264-0.708,0.095-1.047C21.725,5.214,21.379,5,21,5z" fill="currentColor"/><path d="M12.8,5.4c-0.377-0.504-1.223-0.504-1.6,0l-9,12c-0.228,0.303-0.264,0.708-0.095,1.047 C2.275,18.786,2.621,19,3,19h18c0.379,0,0.725-0.214,0.895-0.553c0.169-0.339,0.133-0.744-0.095-1.047L12.8,5.4z" fill="currentColor"/><path d="M13.121 9.31941H14.9266C15.2808 9.31941 15.5677 9.60632 15.5677 9.96049V11.0257C15.5677 11.3798 15.2808 11.6667 14.9266 11.6667H13.3518C13.1816 11.6667 13.0185 11.7345 12.8982 11.8547L10.1958 14.5567C10.0756 14.677 9.91251 14.7447 9.74233 14.7447H8.44325C8.09577 14.7447 7.81109 14.4676 7.80218 14.1201L7.77412 13.0326C7.76476 12.6722 8.05433 12.3746 8.41519 12.3746H9.53339C9.70357 12.3746 9.86662 12.3069 9.98691 12.1866L12.6666 9.50697C12.7869 9.38669 12.9499 9.31897 13.1201 9.31897L13.121 9.31941Z" fill="currentColor"/><path d="M7.75986 3.25531H9.56546C9.91963 3.25531 10.2065 3.54221 10.2065 3.89638V4.96157C10.2065 5.31574 9.91963 5.60264 9.56546 5.60264H7.99063C7.82045 5.60264 7.65739 5.67036 7.53711 5.79064L4.83472 8.49303C4.71443 8.61332 4.55138 8.68104 4.3812 8.68104H3.08212C2.73464 8.68104 2.44996 8.40394 2.44105 8.05645L2.41299 6.96898C2.40363 6.60858 2.6932 6.31143 3.05406 6.31143H4.17226C4.34244 6.31143 4.50549 6.24371 4.62578 6.12343L7.30545 3.44376C7.42573 3.32347 7.58879 3.25576 7.75897 3.25576L7.75986 3.25531Z" fill="currentColor"/><path d="M13.121 4.62744H14.9266C15.2808 4.62744 15.5677 4.91434 15.5677 5.26851V6.3337C15.5677 6.68787 15.2808 6.97477 14.9266 6.97477H13.3518C13.1816 6.97477 13.0185 7.04249 12.8982 7.16277L10.1958 9.86517C10.0756 9.98545 9.91251 10.0532 9.74233 10.0532H8.16393C7.99865 10.0532 7.8396 10.1169 7.72021 10.2314L4.68637 13.1387C4.56697 13.2532 4.40793 13.3169 4.24265 13.3169H3.13692C2.78275 13.3169 2.49585 13.0295 2.49585 12.6758V11.5812C2.49585 11.2271 2.78275 10.9402 3.13692 10.9402H4.23463C4.40481 10.9402 4.56786 10.8724 4.68815 10.7522L7.56918 7.87112C7.68947 7.75083 7.85252 7.68312 8.0227 7.68312H9.53339C9.70357 7.68312 9.86662 7.6154 9.98691 7.49511L12.6666 4.81544C12.7869 4.69516 12.9499 4.62744 13.1201 4.62744H13.121Z" fill="currentColor"/><path d="M100 50.5908C100 78.2051 77.6142 100.591 50 100.591C22.3858 100.591 0 78.2051 0 50.5908C0 22.9766 22.3858 0.59082 50 0.59082C77.6142 0.59082 100 22.9766 100 50.5908ZM9.08144 50.5908C9.08144 73.1895 27.4013 91.5094 50 91.5094C72.5987 91.5094 90.9186 73.1895 90.9186 50.5908C90.9186 27.9921 72.5987 9.67226 50 9.67226C27.4013 9.67226 9.08144 27.9921 9.08144 50.5908Z" fill="currentColor"/><path d="M93.9676 39.0409C96.393 38.4038 97.8624 35.9116 97.0079 33.5539C95.2932 28.8227 92.871 24.3692 89.8167 20.348C85.8452 15.1192 80.8826 10.7238 75.2124 7.41289C69.5422 4.10194 63.2754 1.94025 56.7698 1.05124C51.7666 0.367541 46.6976 0.446843 41.7345 1.27873C39.2613 1.69328 37.813 4.19778 38.4501 6.62326C39.0873 9.04874 41.5694 10.4717 44.0505 10.1071C47.8511 9.54855 51.7191 9.52689 55.5402 10.0491C60.8642 10.7766 65.9928 12.5457 70.6331 15.2552C75.2735 17.9648 79.3347 21.5619 82.5849 25.841C84.9175 28.9121 86.7997 32.2913 88.1811 35.8758C89.083 38.2158 91.5421 39.6781 93.9676 39.0409Z" fill="currentColor"/></svg>