<svg xmlns="http://www.w3.org/2000/svg" viewBox="0 0 697 697" width="24" height="24"><path d="M572.283355,593.964596c-47.042646,32.305387-103.837611,51.438401-165.06516,52.07923-164.731918,1.724141-300.426141-132.22655-300.738501-296.967195-.312099-164.602718,133.029516-298.13692,297.559776-298.13692,62.422076,0,120.354912,19.221075,168.202634,52.06751,1.932802,1.326827,4.559313-.028862,4.559337-2.373257l.000546-53.16979c.000011-1.048757-.562682-2.02097-1.475604-2.537173C525.033846,16.489584,466.971795.188457,405.117629.001612,212.700173-.579629,55.540912,156.084111,55.54226,348.502446c.001349,192.470068,156.029578,348.497554,348.499958,348.497554,62.256594,0,120.700306-16.324561,171.284182-44.926817.912763-.516115,1.475336-1.488098,1.475331-2.536674l-.000234-53.172985c-.00001-2.322378-2.603713-3.713615-4.518142-2.398928Z" fill="currentColor"/></svg>