<svg xmlns="http://www.w3.org/2000/svg" viewBox="0 0 24 24" width="24" height="24"><path d="M70.523 34.87c-7.12 15.244-10.178 31.78-8.225 48.815 5.016 43.774 41.675 79.325 91.536 95.163-6.626-22.407-5.341-44.936 2.64-65.844-47.738-14.183-81.646-42.809-85.95-78.133zM303.779 36.214c7.12 15.243 10.178 31.78 8.225 48.815-5.016 43.774-41.675 79.324-91.536 95.163 6.626-22.408 5.341-44.937-2.64-65.845 47.738-14.182 81.646-42.808 85.95-78.133z" fill="currentColor"/><path d="M-5.09 259.06h18.416c6.22 0 11.228 16.683 11.228 37.404v172.837c0 20.722-5.007 37.404-11.228 37.404H-5.09c-6.22 0-11.228-16.682-11.228-37.404V296.464c0-20.721 5.008-37.403 11.228-37.403z" fill="currentColor"/><path d="M402.04 208.38a107.581 107.581 0 1 1-215.162 0 107.581 107.581 0 1 1 215.163 0z" fill="currentColor"/><path d="M233.345 299.293a101.52 101.52 0 1 1-203.04 0 101.52 101.52 0 1 1 203.04 0z" fill="currentColor"/><path d="M210.617 156.357a27.274 27.274 0 1 1-54.548 0 27.274 27.274 0 1 1 54.548 0z" fill="currentColor"/><path d="M203.546 203.329a5.556 5.556 0 1 1-11.112 0 5.556 5.556 0 1 1 11.112 0z" fill="currentColor"/></svg>