<svg xmlns="http://www.w3.org/2000/svg" viewBox="0 0 588.1 604.9" width="24" height="24"><path d="M202.8 350.2c3.8 3.6 9.7 6 17.1 7.1 16.4 2.4 38.8-2 61.6-8.3 19.4-5.4 41.7-13 60.3-24.9 43.4-27.6 43.6-53.3 25.6-68.2-25.5-21-80.3-10.5-119.9 21.7-26.8 21.8-52.4 47.8-48.7 65.1.4 3 1.9 5.4 4 7.5z" fill="currentColor"/><path d="M196.8 365.1c5 3.1 12.3 4.5 21.1 4.4 19.5-.2 44.7-8.2 70-18.2 21.6-8.5 46.1-19.8 65.5-34.7 45.4-34.7 40.9-60.7 17.2-72.8-33.5-17.1-95.2 2.2-135.4 41-27.1 26.2-52.1 56.5-44.6 73.4 1.2 2.9 3.3 5.2 6.2 6.9z" fill="currentColor"/><path d="M192.6 381.2c6.4 2.3 15.2 2.6 25.4 1.1 22.6-3.4 50.5-15.4 78-29.5 23.5-12.1 49.9-27.3 69.7-45.4 46.3-42.2 36.4-67.7 6.6-76.1-42.1-11.9-110.3 17.5-149.8 63-26.7 30.7-50.2 65.2-38.3 81.1 1.9 2.5 4.7 4.5 8.4 5.8z" fill="currentColor"/><path d="M190.6 398c7.9 1.3 18.1.2 29.7-3 25.6-7 55.8-23.6 85.2-42.2 25.1-15.9 53-35.5 72.7-56.9 46-50 29.8-74-6.4-77.7-51.1-5.3-124.9 35.2-162.4 87.4-25.3 35.2-46.3 73.8-29.6 87.9 2.7 2.3 6.4 3.7 10.8 4.5z" fill="currentColor"/><path d="M191.5 415.2c9.4 0 21.1-2.7 33.9-7.7 28.5-11.1 60.5-32.7 91.2-56.1 26.2-20 55-44.2 74-68.9 44.3-57.7 21-79.4-21.7-77.3-60.4 2.9-138.7 55.4-172.7 114-22.9 39.5-40.2 81.7-18.2 93.3q5.4 2.7 13.5 2.7z" fill="currentColor"/><path d="M195.6 432.5c10.9-1.5 24-6.1 38-13.2 31.1-15.8 64.3-42.6 95.7-71.1 26.8-24.4 55.8-53.4 73.3-81.3 40.8-65.2 9.8-83.3-39.5-74.5-69.6 12.5-150.9 78-179.7 142.4-19.4 43.5-31.7 88.8-4 97 4.5 1.3 10 1.5 16.2.7z" fill="currentColor"/><path d="M203.6 449.2c12.4-3.2 26.8-10 41.7-19.4 33.2-20.9 66.8-53.2 98.1-87 26.7-28.9 55-62.7 70.2-93.6 35.5-72.3-3.9-85.5-59.6-68.8-78.6 23.7-161 102.7-182.6 172.2-14.5 47-20.4 94.5 13.2 98.4 5.5.7 12 0 19-1.8z" fill="currentColor"/><path d="M216 464.8c13.8-5.2 29.3-14.3 44.9-26.2 34.7-26.3 67.9-64.2 97.9-103.3 25.7-33.4 52.4-72 64.3-105.5 27.9-78.5-20.3-85.6-81.9-59.8-87 36.5-168.2 129.2-180.4 202.7-8.2 49.6-6.4 98.5 33.4 97 6.6-.2 13.9-1.9 21.8-4.9z" fill="currentColor"/><path d="M233.2 478.5c15.1-7.5 31.4-19.1 47.4-33.5 35.5-32.1 67.1-75.6 94.8-119.7 23.7-37.7 47.6-80.9 55.3-116.6 18-83.6-39.4-83-106.1-47.2-94.4 50.6-171.7 157.1-172.4 233.1-.4 51.3 10.7 100.3 56.7 92.4 7.5-1.3 15.7-4.2 24.3-8.5z" fill="currentColor"/><path d="M255.8 489.6c16.2-9.9 32.9-24.3 48.9-41.4 35.4-38 64-86.9 88.1-135.8 20.6-41.8 40.4-89.1 42.8-126.4 5.5-87.1-61-77.4-132-30.6C203.2 221.5 133 341.1 146.2 417.9c8.9 51.8 30.9 99.4 82.9 84.1 8.5-2.5 17.5-6.7 26.7-12.4z" fill="currentColor"/><path d="M284 497.2c17-12.6 33.8-29.7 49.2-49.5 34.1-43.9 58.4-97.8 77.4-150.9 16.2-45.4 30.6-96.3 26.5-134.2-9.6-88.6-85.1-68.2-159-9.8C173.7 235.4 114 367.2 143.5 442.4c19.9 50.8 54.3 95.2 111.8 71.5 9.4-3.8 19.1-9.5 28.7-16.7z" fill="currentColor"/><path d="M318.2 500.4c17.4-15.4 33.8-35.3 48-57.7 31.5-49.7 49.8-107.9 62.1-164.5 10.5-48.4 17.8-101.9 6-139.5-27.4-87.8-111.3-55.2-186.4 15.5-106.2 100-151.2 242.3-103.1 313.4 32.5 48 80.6 87.3 143.1 54.3 10.2-5.5 20.4-12.8 30.3-21.5z" fill="currentColor"/><path d="M358.6 498c17.4-18.3 32.8-41 45.2-65.9 27.5-55.1 38.1-116.7 41.9-175.7 3.3-50.4 2-105.6-18.6-141.5-48.1-84.1-139.7-37.8-214 45.4C108.1 278.1 82 428.7 151 492.7c46.6 43.2 109.7 75.2 176.2 31.8 11-7.1 21.5-16 31.4-26.5z" fill="currentColor"/><path d="M405 489.3c16.8-21.2 30.6-46.6 40.4-73.6 21.8-60 22.8-123.7 16.4-183.8-5.4-51.3-17.2-106.7-47.7-139.7-71.4-77.1-169.3-15.8-240.3 79.9-100.3 135.4-103 291.3-11 344.8 62.1 36.1 141.3 58.2 210.6 4 11.5-8.8 22.1-19.5 31.6-31.6z" fill="currentColor"/><path d="M457.4 473c15.6-24.1 27-51.8 33.4-80.6 14.3-63.9 3.7-128.3-14.8-187.8-15.8-50.9-39.6-104.8-81.1-133.1-97.2-66.3-199.7 11-264.5 118.9-91.6 152.4-66 310.1 50.7 349.3 78.8 26.5 174.9 36.1 245.5-29.6 11.6-10.9 21.9-23.4 30.8-37.1z" fill="currentColor"/><path d="M515.2 448.3c13.7-26.7 21.8-56.5 24-86.6 4.8-66.7-19.3-129.9-51.7-186.9-27.7-48.8-65.3-99.3-118.8-121.2-125.1-51.3-230 43-285.5 162-78.4 168.3-19.6 323 123.2 343.9 96.4 14.1 209.9 8.5 279.8-69 11.6-12.7 21.2-27 29-42.2z" fill="currentColor"/></svg>