<svg xmlns="http://www.w3.org/2000/svg" viewBox="0 0 32 32" width="24" height="24"><path d="M26.69 18.53a1 1 0 0 0-1.4-.22L16 25.17v.29a1 1 0 1 1 0 1.91v.05a1 1 0 0 0 .6-.19l9.88-7.3a1 1 0 0 0 .21-1.4z" fill="currentColor"/><path d="M16 27.37a1 1 0 1 1 0-1.91v-.29l-9.29-6.86a1 1 0 0 0-1.4.22 1 1 0 0 0 .21 1.4l9.89 7.3a1 1 0 0 0 .59.19v-.05z" fill="currentColor"/><path d="M16 24.46a2 2 0 1 0 2 2 2 2 0 0 0-2-2zm0 2.91a1 1 0 1 1 1-.95 1 1 0 0 1-1 .95z" fill="currentColor"/><path d="M8 8.14a1 1 0 0 1-1-1V4.63a1 1 0 1 1 2 0v2.51a1 1 0 0 1-1 1z" fill="currentColor"/><path d="M24 11.07a1 1 0 0 1-1-1V7.55a1 1 0 0 1 2 0v2.52a1 1 0 0 1-1 1z" fill="currentColor"/><path d="M16 20a1 1 0 0 1-1-1v-2.54a1 1 0 0 1 2 0V19a1 1 0 0 1-1 1z" fill="currentColor"/><path d="M20 14.05a1 1 0 0 1-1-1v-2.51a1 1 0 1 1 2 0v2.51a1 1 0 0 1-1 1z" fill="currentColor"/><path d="M12 17a1 1 0 0 1-1-1v-2.54a1 1 0 0 1 2 0V16a1 1 0 0 1-1 1z" fill="currentColor"/></svg>