<svg xmlns="http://www.w3.org/2000/svg" viewBox="0 0 24 24" width="24" height="24"><path d="M12 20a8 8 0 1 0 0-16 8 8 0 0 0 0 16Z" fill="currentColor"/><path d="M12 14a2 2 0 1 0 0-4 2 2 0 0 0 0 4Z" fill="currentColor"/><path d="M12 2v2" fill="currentColor"/><path d="M12 22v-2" fill="currentColor"/><path d="m17 20.66-1-1.73" fill="currentColor"/><path d="M11 10.27 7 3.34" fill="currentColor"/><path d="m20.66 17-1.73-1" fill="currentColor"/><path d="m3.34 7 1.73 1" fill="currentColor"/><path d="M14 12h8" fill="currentColor"/><path d="M2 12h2" fill="currentColor"/><path d="m20.66 7-1.73 1" fill="currentColor"/><path d="m3.34 17 1.73-1" fill="currentColor"/><path d="m17 3.34-1 1.73" fill="currentColor"/><path d="m11 13.73-4 6.93" fill="currentColor"/></svg>