<svg xmlns="http://www.w3.org/2000/svg" viewBox="0 0 375 375" width="24" height="24"><path d="M109.379 231.133h37.105v37.105H109.38Zm0 0" fill="currentColor"/><path d="M127.934 231.133c-10.246 0-18.555 8.304-18.555 18.554 0 10.247 8.308 18.551 18.555 18.551 10.246 0 18.55-8.304 18.55-18.55 0-10.25-8.304-18.555-18.55-18.555Zm0 0" fill="currentColor"/><path d="M127.926 239.96V50.165" fill="currentColor"/><path d="m85.387 99.793 42.539-56.719 42.539 56.719" fill="currentColor"/><path d="m141.012 254.168 172.476-.02" fill="currentColor"/><path d="m263.855 211.613 56.723 42.535-56.715 42.547" fill="currentColor"/><path d="m117.852 259.344-57.446 66.015" fill="currentColor"/><path d="m113.32 317.574-56.718 12.16 4.207-57.859" fill="currentColor"/><path d="M109.379 231.133h37.105v37.105H109.38Zm0 0" fill="currentColor"/></svg>