<svg xmlns="http://www.w3.org/2000/svg" viewBox="0 0 810 810" width="24" height="24"><path d="m0 0h601v602h-601z" fill="currentColor"/><path d="m402.21-0.085938c-205.55 0-192.71 89.121-192.71 89.121l0.22656 92.34h196.13v27.719h-274.04s-131.52-14.914-131.52 192.45c0 207.38 114.8 200.03 114.8 200.03h68.508v-96.242s-3.6914-114.79 112.96-114.79h194.54s109.28 1.7734 109.28-105.62v-177.56s16.609-107.46-198.18-107.46zm-108.16 62.09c19.512 0 35.277 15.77 35.277 35.281 0 19.516-15.766 35.285-35.277 35.285-19.516 0-35.289-15.77-35.289-35.285 0-19.512 15.773-35.281 35.289-35.281z" fill="currentColor"/><path d="m209 203h601v602.5h-601z" fill="currentColor"/><path d="m408.04 805.28c205.53 0 192.69-89.141 192.69-89.141l-0.22266-92.344h-196.14v-27.703h274.04s131.54 14.898 131.54-192.45c0-207.38-114.8-200.02-114.8-200.02h-68.508v96.227s3.6758 114.8-112.96 114.8h-194.56s-109.29-1.7734-109.29 105.62v177.55s-16.594 107.46 198.21 107.46zm108.14-62.102c-19.5 0-35.285-15.785-35.285-35.281 0-19.527 15.785-35.281 35.285-35.281 19.527 0 35.285 15.754 35.285 35.281 0 19.496-15.758 35.281-35.285 35.281z" fill="currentColor"/><path d="m0.29688 0v608.93h616.7v-608.93z" fill="currentColor"/><path d="m193.24 196.26v609.02h616.7v-609.02z" fill="currentColor"/></svg>