<svg xmlns="http://www.w3.org/2000/svg" viewBox="0 0 24 24" width="24" height="24"><path d="m15.228 16.852-.923-.383" fill="currentColor"/><path d="m15.228 19.148-.923.383" fill="currentColor"/><path d="M16 2v4" fill="currentColor"/><path d="m16.47 14.305.382.923" fill="currentColor"/><path d="m16.852 20.772-.383.924" fill="currentColor"/><path d="m19.148 15.228.383-.923" fill="currentColor"/><path d="m19.53 21.696-.382-.924" fill="currentColor"/><path d="m20.772 16.852.924-.383" fill="currentColor"/><path d="m20.772 19.148.924.383" fill="currentColor"/><path d="M21 11V6a2 2 0 0 0-2-2H5a2 2 0 0 0-2 2v14a2 2 0 0 0 2 2h6" fill="currentColor"/><path d="M3 10h18" fill="currentColor"/><path d="M8 2v4" fill="currentColor"/></svg>