<svg xmlns="http://www.w3.org/2000/svg" viewBox="0 0 24 24" fill="currentColor"><path d="M18.72 15.11c-2.4 1.76-5.73 2.71-8.38 2.71-3.87 0-7.38-1.3-10.35-3.56-.3-.23-.33-.52-.05-.71.28-.19.69-.19.98.02 2.65 1.96 5.86 3.1 9.42 3.1 2.73 0 5.61-.82 7.84-2.43.3-.23.69-.02.59.32-.1.35-.25.55-.5.72s-.41.34-.41.34zm.35-1.07c-.09-.54.06-1.07.41-1.5.11-.11.28-.11.39 0 .54.54.74 1.36.52 2.08-.05.15-.22.22-.35.14l-.73-.46c-.15-.09-.21-.24-.24-.26zm2.25-.97c-.22-.16-.57-.16-.75.07-.27.33-.44.72-.51 1.14-.04.26.15.5.41.53.9.12 1.95.88 2.59 1.42.17.14.41.13.56-.02.17-.17.17-.44 0-.62-.64-.69-2.08-1.58-2.59-1.58l.3-2.51z"/></svg>