<svg xmlns="http://www.w3.org/2000/svg" viewBox="0 0 24 24" width="24" height="24"><path d="M14 21h1" fill="none" stroke="currentColor" stroke-width="2" stroke-linecap="round" stroke-linejoin="round" /><path d="M14 3h1" fill="none" stroke="currentColor" stroke-width="2" stroke-linecap="round" stroke-linejoin="round" /><path d="M19 3a2 2 0 0 1 2 2" fill="none" stroke="currentColor" stroke-width="2" stroke-linecap="round" stroke-linejoin="round" /><path d="M21 14v1" fill="none" stroke="currentColor" stroke-width="2" stroke-linecap="round" stroke-linejoin="round" /><path d="M21 19a2 2 0 0 1-2 2" fill="none" stroke="currentColor" stroke-width="2" stroke-linecap="round" stroke-linejoin="round" /><path d="M21 9v1" fill="none" stroke="currentColor" stroke-width="2" stroke-linecap="round" stroke-linejoin="round" /><path d="M3 14v1" fill="none" stroke="currentColor" stroke-width="2" stroke-linecap="round" stroke-linejoin="round" /><path d="M3 9v1" fill="none" stroke="currentColor" stroke-width="2" stroke-linecap="round" stroke-linejoin="round" /><path d="M5 21a2 2 0 0 1-2-2" fill="none" stroke="currentColor" stroke-width="2" stroke-linecap="round" stroke-linejoin="round" /><path d="M5 3a2 2 0 0 0-2 2" fill="none" stroke="currentColor" stroke-width="2" stroke-linecap="round" stroke-linejoin="round" /><path d="M7 12h10" fill="none" stroke="currentColor" stroke-width="2" stroke-linecap="round" stroke-linejoin="round" /><path d="M7 16h6" fill="none" stroke="currentColor" stroke-width="2" stroke-linecap="round" stroke-linejoin="round" /><path d="M7 8h8" fill="none" stroke="currentColor" stroke-width="2" stroke-linecap="round" stroke-linejoin="round" /><path d="M9 21h1" fill="none" stroke="currentColor" stroke-width="2" stroke-linecap="round" stroke-linejoin="round" /><path d="M9 3h1" fill="none" stroke="currentColor" stroke-width="2" stroke-linecap="round" stroke-linejoin="round" /></svg>